<svg width="28" height="28" viewBox="0 0 28 28" fill="none" xmlns="http://www.w3.org/2000/svg">
<g clip-path="url(#clip0_87_399)">
<path d="M24.5 6.84999H23.4833V5.83332C23.4833 5.48412 23.3446 5.14922 23.0977 4.9023C22.8508 4.65538 22.5159 4.51666 22.1667 4.51666C21.8175 4.51666 21.4826 4.65538 21.2356 4.9023C20.9887 5.14922 20.85 5.48412 20.85 5.83332V6.84999H19.8333C19.4841 6.84999 19.1492 6.98871 18.9023 7.23563C18.6554 7.48256 18.5167 7.81745 18.5167 8.16666C18.5167 8.51586 18.6554 8.85076 18.9023 9.09768C19.1492 9.3446 19.4841 9.48332 19.8333 9.48332H20.85V10.5C20.85 10.8492 20.9887 11.1841 21.2356 11.431C21.4826 11.6779 21.8175 11.8167 22.1667 11.8167C22.5159 11.8167 22.8508 11.6779 23.0977 11.431C23.3446 11.1841 23.4833 10.8492 23.4833 10.5V9.48332H24.5C24.8492 9.48332 25.1841 9.3446 25.431 9.09768C25.6779 8.85076 25.8167 8.51586 25.8167 8.16666C25.8167 7.81745 25.6779 7.48256 25.431 7.23563C25.1841 6.98871 24.8492 6.84999 24.5 6.84999Z" fill="#595959" stroke="#595959" stroke-width="0.3"/>
<path d="M11.6667 12.9833C12.6193 12.9833 13.5506 12.7008 14.3427 12.1716C15.1348 11.6423 15.7521 10.8901 16.1167 10.0099C16.4812 9.1298 16.5766 8.16133 16.3908 7.22698C16.2049 6.29264 15.7462 5.43439 15.0726 4.76077C14.3989 4.08715 13.5407 3.62841 12.6064 3.44255C11.672 3.2567 10.7035 3.35209 9.82341 3.71665C8.94328 4.08121 8.19102 4.69858 7.66175 5.49067C7.13249 6.28277 6.85 7.21402 6.85 8.16667C6.85 9.44413 7.35747 10.6693 8.26077 11.5726C9.16407 12.4759 10.3892 12.9833 11.6667 12.9833ZM11.6667 5.98334C12.0985 5.98334 12.5206 6.11139 12.8797 6.35129C13.2387 6.5912 13.5186 6.93219 13.6838 7.33114C13.8491 7.73009 13.8923 8.16909 13.808 8.59262C13.7238 9.01614 13.5159 9.40517 13.2105 9.71052C12.9052 10.0159 12.5161 10.2238 12.0926 10.3081C11.6691 10.3923 11.2301 10.3491 10.8311 10.1838C10.4322 10.0186 10.0912 9.73871 9.85129 9.37966C9.61138 9.02062 9.48333 8.59849 9.48333 8.16667C9.48333 7.58761 9.71336 7.03227 10.1228 6.62282C10.5323 6.21336 11.0876 5.98334 11.6667 5.98334Z" fill="#595959" stroke="#595959" stroke-width="0.3"/>
<path d="M11.6667 15.0167C9.46095 15.0167 7.34557 15.8929 5.7859 17.4526C4.22622 19.0122 3.35 21.1276 3.35 23.3333C3.35 23.6825 3.48872 24.0174 3.73564 24.2643C3.98257 24.5113 4.31747 24.65 4.66667 24.65C5.01587 24.65 5.35077 24.5113 5.59769 24.2643C5.84461 24.0174 5.98333 23.6825 5.98333 23.3333C5.98333 21.826 6.58211 20.3804 7.64794 19.3146C8.71377 18.2488 10.1594 17.65 11.6667 17.65C13.174 17.65 14.6196 18.2488 15.6854 19.3146C16.7512 20.3804 17.35 21.826 17.35 23.3333C17.35 23.6825 17.4887 24.0174 17.7356 24.2643C17.9826 24.5113 18.3175 24.65 18.6667 24.65C19.0159 24.65 19.3508 24.5113 19.5977 24.2643C19.8446 24.0174 19.9833 23.6825 19.9833 23.3333C19.9833 21.1276 19.1071 19.0122 17.5474 17.4526C15.9878 15.8929 13.8724 15.0167 11.6667 15.0167Z" fill="#595959" stroke="#595959" stroke-width="0.3"/>
</g>
<defs>
<clipPath id="clip0_87_399">
<rect width="28" height="28" fill="white"/>
</clipPath>
</defs>
</svg>
